<?xml version="1.0" encoding="UTF-8"?>
<svg version="1.1" xmlns="http://www.w3.org/2000/svg" width="500" height="500">
<path d="M0 0 C2.8125 2 2.8125 2 4.79125977 3.91894531 C10.70172596 9.37817905 14.97334888 10.95198196 22.99609375 10.8984375 C24.17300781 10.84945313 25.34992188 10.80046875 26.5625 10.75 C27.75488281 10.74742188 28.94726562 10.74484375 30.17578125 10.7421875 C36.6388747 10.6122035 40.92817465 10.36848901 45.8125 6 C46.39257812 5.53335937 46.97265625 5.06671875 47.5703125 4.5859375 C48.24707031 3.98652344 48.24707031 3.98652344 48.9375 3.375 C54.63562097 -1.33214341 58.99592834 -1.48940437 66.3203125 -1.3828125 C72.40730713 -0.71555806 75.83591535 1.90714566 79.9375 6.25 C81.8125 9 81.8125 9 82.94335938 11.09448242 C86.85785453 17.89270329 90.77420914 19.96902843 98.1875 22.0625 C99.095 22.35576172 100.0025 22.64902344 100.9375 22.95117188 C108.13571837 25.16560937 114.65828489 26.50244628 121.6875 23 C127.83881635 20.37581459 133.06874473 19.76483403 139.48828125 21.8828125 C145.16533331 24.42276764 149.27493523 27.22654838 151.8125 33 C152.86803922 36.54710273 153.80376165 40.08660167 154.625 43.6953125 C156.88436236 49.98288012 162.4351346 53.42197556 167.6875 57.1875 C168.27402344 57.62513672 168.86054688 58.06277344 169.46484375 58.51367188 C175.80846512 63.07968506 181.42784702 64.24942147 189.25 63.875 C195.41305979 63.79583026 199.90500084 64.10959912 204.8125 68 C208.57295744 71.76045744 211.54329861 76.616749 211.97290039 82.01586914 C211.92853858 84.1409752 211.81670027 86.25344571 211.6875 88.375 C211.50170318 95.67259964 212.27195089 100.1023879 216.8125 106 C217.90498047 107.64355469 217.90498047 107.64355469 219.01953125 109.3203125 C223.23660341 115.48646588 226.73359225 120.12016381 234.42578125 121.60546875 C235.21339844 121.73566406 236.00101562 121.86585937 236.8125 122 C243.41841523 124.00144192 247.927545 126.38200694 252.0625 132.125 C254.74443983 137.2480524 255.51977338 142.81221786 254.265625 148.46484375 C253.23586682 151.62241858 252.0183324 154.57804358 250.5625 157.5625 C248.62491082 163.85966483 251.56172587 171.15991531 253.5625 177.1875 C253.80226563 177.96802734 254.04203125 178.74855469 254.2890625 179.55273438 C256.56036533 186.45445095 260.17387237 190.20383143 266.375 194 C272.03002878 197.68234432 275.26660535 201.30112319 276.8125 208 C277.74742523 216.97200182 275.24298449 222.37035882 269.6875 229.25 C268.98367188 230.08015625 268.27984375 230.9103125 267.5546875 231.765625 C263.73746416 236.66125673 264.59173236 242.38929329 264.5625 248.3125 C264.541875 249.34568359 264.52125 250.37886719 264.5 251.44335938 C264.46159983 258.92659183 265.50498316 263.89501497 270.8125 269.4375 C275.56524496 274.85231888 277.48810169 280.19768762 277.21484375 287.37890625 C276.33891054 293.08522845 274.15562034 298.03160663 269.6875 301.78515625 C268.2192983 302.75486379 266.72196305 303.68282686 265.19140625 304.55078125 C257.62893198 309.15780581 255.48517193 313.05913346 252.9375 321.4375 C252.63070313 322.36626953 252.32390625 323.29503906 252.0078125 324.25195312 C249.4213714 332.176368 249.4213714 332.176368 250.65234375 340.23828125 C251.01457031 340.92277344 251.37679688 341.60726563 251.75 342.3125 C254.65326492 348.50267557 255.64670487 353.96395314 253.75 360.625 C251.46734064 366.53305952 248.1909147 370.6942037 242.625 373.75 C240.48060227 374.5535548 238.41260931 375.08446731 236.16796875 375.55859375 C228.52655251 377.24158693 225.24674968 379.63739008 220.8125 386 C220.01199219 387.00289063 219.21148437 388.00578125 218.38671875 389.0390625 C212.20717772 397.17450234 211.10864618 403.12562346 211.6640625 413.203125 C211.89086799 419.00457072 211.04459897 422.5363146 207.04296875 426.953125 C202.06460403 431.63640501 197.91650007 434.04023131 190.89453125 433.94921875 C190.20302979 433.90603516 189.51152832 433.86285156 188.79907227 433.81835938 C179.47839326 433.25733928 174.14400526 434.96094418 166.8125 441 C165.89339844 441.66 164.97429687 442.32 164.02734375 443 C157.93509567 447.48810218 155.09910471 450.96758412 153.1953125 458.4140625 C151.19756481 465.84388817 148.47850851 470.55599433 142 474.875 C133.94758301 477.71702953 127.72674073 477.10281977 119.8125 474 C119.19189697 473.64744141 118.57129395 473.29488281 117.93188477 472.93164062 C111.83309052 470.25072842 103.54800906 473.714311 97.5625 475.6875 C96.39847656 476.03458008 96.39847656 476.03458008 95.2109375 476.38867188 C87.82042374 478.80383124 84.9223898 482.86615647 81.125 489.5625 C77.70657369 494.73822475 73.69779458 497.18043407 67.8125 499 C60.13370183 500.44275556 54.24235858 498.16430438 47.8125 494 C45.8816311 492.48288872 44.0620153 490.92828486 42.28515625 489.234375 C38.06499589 485.69705226 31.67273617 486.77552862 26.5 486.75 C25.46681641 486.729375 24.43363281 486.70875 23.36914062 486.6875 C15.44445236 486.64683451 10.62113628 487.95958625 4.8125 493.5625 C-0.37565406 498.21124296 -5.00435564 499.45780997 -11.890625 499.23828125 C-19.10066634 498.49030077 -23.05982578 495.70690255 -27.640625 490.18359375 C-29.09683518 488.12798393 -30.06099604 486.14691009 -31.125 483.875 C-34.84500807 477.51215791 -43.55101624 476.00771012 -50.1875 474 C-51.42628906 473.61199219 -52.66507813 473.22398437 -53.94140625 472.82421875 C-59.17338633 471.49576171 -63.27999926 472.00478222 -68.0625 474.5 C-73.90689342 477.30530884 -79.79466822 477.70512619 -86 475.8125 C-91.68955749 473.57874767 -95.32885615 470.65116915 -98.29296875 465.1953125 C-99.77827159 461.55015882 -100.46666805 457.72755665 -101.18359375 453.8671875 C-103.37719935 447.60218162 -109.6187408 444.01344661 -114.8125 440.25 C-115.48023437 439.75628906 -116.14796875 439.26257813 -116.8359375 438.75390625 C-121.76573404 435.15515478 -124.68687935 433.90404781 -130.98925781 434.16772461 C-139.00771291 434.45954096 -145.6442109 434.23724337 -152.1875 429 C-156.68106139 424.21315255 -158.31034037 419.98608724 -158.12060547 413.4543457 C-157.74122516 399.46987736 -162.40391664 392.49034601 -171.1875 382 C-171.78820312 381.26265625 -172.38890625 380.5253125 -173.0078125 379.765625 C-176.05202345 377.29970502 -179.40594477 376.48315954 -183.125 375.5 C-189.31134738 373.85559969 -193.89015726 372.23329718 -197.76953125 366.7734375 C-200.85699279 360.75533786 -202.37698343 355.75795011 -201.1875 349 C-200.28305565 346.44581809 -199.27072243 344.04202279 -198.0625 341.6171875 C-195.60869366 334.27767745 -197.83754496 327.45354219 -200.125 320.375 C-200.51268555 319.00214844 -200.51268555 319.00214844 -200.90820312 317.6015625 C-203.24954023 310.31974105 -206.67152567 307.66753589 -213.1875 304 C-217.94012968 300.46032955 -220.87611666 297.60949758 -223.1875 292 C-224.21917497 284.5891348 -224.23973894 277.80119187 -219.62890625 271.6796875 C-219.15324219 271.12539063 -218.67757812 270.57109375 -218.1875 270 C-217.72214844 269.42507813 -217.25679687 268.85015625 -216.77734375 268.2578125 C-215.5997466 266.82272326 -214.39562826 265.40948297 -213.1875 264 C-209.42584697 256.47669394 -210.96638562 243.10186049 -212.1875 235 C-214.30049426 229.55792264 -218.0160087 225.99322244 -222.1875 222 C-224.27735698 215.73042905 -224.36832397 207.70365986 -221.75 201.5625 C-219.50841107 197.76536003 -216.35596979 195.71512986 -212.6015625 193.51953125 C-205.36074457 188.96179957 -202.93790728 185.31716056 -200.3125 177.25 C-200.00570312 176.3940625 -199.69890625 175.538125 -199.3828125 174.65625 C-197.2396214 168.34149052 -195.76322558 162.0057718 -198.0625 155.5390625 C-198.43375 154.90742188 -198.805 154.27578125 -199.1875 153.625 C-202.02712745 147.81390526 -202.33982532 141.95472596 -200.52734375 135.734375 C-198.29495243 130.6704224 -195.03106688 126.71434788 -190.1875 124 C-186.6475673 122.83361664 -183.12437307 121.88921591 -179.4921875 121.0546875 C-172.39611256 118.78998273 -169.0213303 113.42299666 -164.9375 107.5625 C-164.39609375 106.81162109 -163.8546875 106.06074219 -163.296875 105.28710938 C-162.5234375 104.18786133 -162.5234375 104.18786133 -161.734375 103.06640625 C-161.26870117 102.40584229 -160.80302734 101.74527832 -160.32324219 101.06469727 C-158.03042586 96.89652278 -158.14852274 92.94300884 -158.35473633 88.27636719 C-158.60611846 81.93174918 -158.67890619 76.68565935 -154.6171875 71.4765625 C-152.5971788 69.390324 -150.60661172 67.61274115 -148.1875 66 C-147.64867187 65.63519531 -147.10984375 65.27039063 -146.5546875 64.89453125 C-142.43372311 63.33726913 -137.99269028 63.96395954 -133.65039062 64.16601562 C-124.74200683 64.39524644 -118.81025547 60.34367813 -111.9375 55.125 C-110.87789062 54.34962891 -110.87789062 54.34962891 -109.796875 53.55859375 C-103.91740007 49.13785219 -101.28520477 45.53249099 -99.9375 38.1875 C-98.46898225 31.97689369 -96.09337449 28.07800817 -91.1875 24 C-85.5055182 20.50339581 -79.69676928 20.1265811 -73.1875 21 C-70.86398006 21.87701488 -68.78800155 22.86746031 -66.6484375 24.125 C-59.23705977 26.76015653 -52.04099294 24.42113151 -44.9375 21.875 C-43.63039062 21.44960938 -43.63039062 21.44960938 -42.296875 21.015625 C-34.52468436 18.29061913 -31.50217331 14.43234167 -27.375 7.375 C-21.10400638 -2.01565459 -10.47917104 -3.28758307 0 0 Z " fill="#81BC3E" transform="translate(223.1875,1)"/>
<path d="M0 0 C2.01165662 1.83655952 3.99236713 3.70335625 5.96142578 5.58544922 C6.94256637 6.5219042 7.92887044 7.4529809 8.92041016 8.37841797 C43.19312182 40.41447936 65.34038077 89.12798745 67.63378906 135.93383789 C67.66648074 137.31302506 67.69308523 138.69236676 67.71435547 140.07177734 C67.72692886 140.8252948 67.73950226 141.57881226 67.75245667 142.35516357 C68.21229959 176.65351958 62.77071743 209.01383129 47.44091797 239.99755859 C47.10946777 240.66754883 46.77801758 241.33753906 46.43652344 242.02783203 C36.87232183 261.10016763 24.09611104 277.60499732 9.44091797 292.99755859 C8.52052734 293.97982422 8.52052734 293.97982422 7.58154297 294.98193359 C-18.42376834 321.97792342 -54.98305003 339.41312006 -91.24658203 347.24755859 C-91.94541504 347.39878174 -92.64424805 347.55000488 -93.36425781 347.70581055 C-106.86050817 350.42749802 -120.26453919 351.40905204 -133.99658203 351.37255859 C-134.77566925 351.37201477 -135.55475647 351.37147095 -136.35745239 351.37091064 C-164.97226308 351.27976558 -191.60525875 344.93999544 -217.55908203 332.99755859 C-218.59258789 332.5301123 -218.59258789 332.5301123 -219.64697266 332.05322266 C-234.49039154 325.27687925 -255.44581812 315.03086683 -264.55908203 300.99755859 C-265.371766 295.65706397 -263.671992 293.23630989 -260.55908203 288.99755859 C-258.72211928 287.01993858 -256.88446217 285.12812747 -254.94848633 283.25512695 C-254.40009598 282.71608231 -253.85170563 282.17703766 -253.28669739 281.62165833 C-252.10478567 280.46062881 -250.92069129 279.30181777 -249.73462486 278.14503288 C-247.85906686 276.31374038 -245.99174004 274.47442417 -244.12666321 272.63246155 C-238.82660074 267.39941054 -233.51825098 262.17499531 -228.18969727 256.97094727 C-224.92386814 253.78028679 -221.67273386 250.57527681 -218.43064308 247.36050606 C-217.19331474 246.13930333 -215.95045169 244.92368247 -214.70206261 243.71378899 C-212.96168959 242.02620587 -211.24057959 240.32103235 -209.52270508 238.6105957 C-209.00175262 238.11435699 -208.48080017 237.61811829 -207.94406128 237.10684204 C-206.34457527 235.5573424 -206.34457527 235.5573424 -204.55908203 232.99755859 C-204.63929646 228.83208881 -206.22932208 226.87720556 -209.15344238 223.97566223 C-209.64824097 223.50464584 -210.14303955 223.03362946 -210.65283203 222.54833984 C-211.15955444 222.0496489 -211.66627686 221.55095795 -212.18835449 221.03715515 C-213.80272057 219.45170137 -215.43014573 217.88052643 -217.05908203 216.31005859 C-218.68531864 214.72633955 -220.30871065 213.13980413 -221.92980957 211.55082703 C-222.9378865 210.56443789 -223.94942582 209.58157242 -224.96472168 208.60261536 C-228.35729428 205.30641077 -229.46095129 203.99522108 -229.93408203 199.18505859 C-229.87235521 195.7962559 -229.54774994 194.98056045 -227.55908203 191.99755859 C-224.47715099 189.9429379 -222.37343301 189.13532945 -218.64086914 189.39282227 C-216.11953611 190.12524186 -214.87042748 191.15191568 -212.93798828 192.92333984 C-212.24423096 193.55739746 -211.55047363 194.19145508 -210.83569336 194.84472656 C-210.08441162 195.55516113 -209.33312988 196.2655957 -208.55908203 196.99755859 C-207.74914795 197.76342285 -206.93921387 198.52928711 -206.10473633 199.31835938 C-203.48211595 201.83373505 -200.89295789 204.37993506 -198.30908203 206.93505859 C-197.42478516 207.79035156 -196.54048828 208.64564453 -195.62939453 209.52685547 C-190.04503794 215.05638076 -185.42866332 219.90331861 -184.06298828 227.90380859 C-184.08232422 228.75974609 -184.10166016 229.61568359 -184.12158203 230.49755859 C-184.12351563 231.78146484 -184.12351563 231.78146484 -184.12548828 233.09130859 C-185.68865799 243.56877041 -191.98816026 249.08475918 -199.22705078 256.15380859 C-200.3897077 257.30712796 -201.55125665 258.46156525 -202.71174622 259.61706543 C-205.75364983 262.6399737 -208.81026979 265.64755697 -211.87030029 268.65209961 C-214.99636864 271.72681424 -218.10814719 274.815918 -221.22119141 277.90380859 C-227.31999834 283.94915967 -233.43444199 289.97838138 -239.55908203 295.99755859 C-235.94637518 299.70435034 -232.38938859 302.63318901 -227.93408203 305.24755859 C-227.28584473 305.62960449 -226.63760742 306.01165039 -225.96972656 306.40527344 C-205.20128398 318.40122007 -183.23173777 326.18880187 -159.55908203 329.99755859 C-157.95057373 330.26125244 -157.95057373 330.26125244 -156.30957031 330.53027344 C-152.27055241 331.03350741 -148.29409787 331.17637608 -144.23095703 331.20068359 C-143.44850113 331.20769791 -142.66604523 331.21471222 -141.85987854 331.22193909 C-139.34288747 331.23938344 -136.82613136 331.24579296 -134.30908203 331.24755859 C-133.45116058 331.24823334 -132.59323914 331.24890808 -131.70932007 331.24960327 C-119.41105426 331.23419642 -107.56252969 330.90833835 -95.55908203 327.99755859 C-94.78693359 327.82063477 -94.01478516 327.64371094 -93.21923828 327.46142578 C-75.97550757 323.46777775 -60.15248639 317.32833908 -44.55908203 308.99755859 C-43.53298828 308.45486328 -42.50689453 307.91216797 -41.44970703 307.35302734 C-27.79352505 299.76831005 -15.77545111 289.79098766 -4.55908203 278.99755859 C-3.87974609 278.38138672 -3.20041016 277.76521484 -2.50048828 277.13037109 C27.54992969 249.01667445 45.9235032 203.66389928 47.60498047 163.03320312 C48.11731001 146.23776767 48.11023797 129.46977169 44.44091797 112.99755859 C44.27462891 112.22524902 44.10833984 111.45293945 43.93701172 110.65722656 C38.34724575 85.40494121 27.24949653 61.45119027 11.44091797 40.99755859 C10.77060547 40.10423828 10.10029297 39.21091797 9.40966797 38.29052734 C-16.46142306 5.10587789 -52.95931401 -16.39308097 -93.55908203 -26.00244141 C-94.31406982 -26.18210449 -95.06905762 -26.36176758 -95.84692383 -26.546875 C-140.22612438 -36.7893263 -188.81416279 -27.32454474 -227.55908203 -4.00244141 C-243.98410437 6.33857463 -260.03217986 19.18634087 -271.93408203 34.62255859 C-272.40322021 35.2280957 -272.8723584 35.83363281 -273.35571289 36.45751953 C-303.47710713 75.65358953 -318.66804907 122.77702659 -312.73095703 172.40966797 C-311.30296145 182.69278832 -308.8240901 192.69999271 -306.14453125 202.71826172 C-305.18437737 206.4563754 -304.37250497 210.22535835 -303.55908203 213.99755859 C-297.13010027 208.58155836 -291.21449629 202.73969362 -285.32080078 196.75146484 C-284.35012849 195.77127463 -283.37899352 194.79154241 -282.40742493 193.8122406 C-278.32372476 189.69534539 -274.24431943 185.57427013 -270.17553711 181.44262695 C-267.67015789 178.89915819 -265.15714645 176.36343542 -262.63941383 173.83219719 C-261.24105544 172.42209942 -259.85093381 171.00384823 -258.46110535 169.58534241 C-240.96670525 152.02182197 -220.92071444 143.7924426 -197.44189453 137.28662109 C-180.12906827 132.48204602 -166.13095636 127.15688904 -152.55908203 114.99755859 C-150.21320626 112.96703683 -147.85391897 110.95225242 -145.49658203 108.93505859 C-144.89918213 108.42064209 -144.30178223 107.90622559 -143.6862793 107.3762207 C-139.52339875 103.79601751 -135.28794298 100.32561202 -130.98095703 96.91943359 C-128.34053047 94.82412735 -125.7291018 92.69616236 -123.12158203 90.56005859 C-122.21408203 89.81755859 -121.30658203 89.07505859 -120.37158203 88.31005859 C-118.42861993 86.71251197 -116.49146886 85.10788095 -114.55908203 83.49755859 C-113.58970703 82.69318359 -112.62033203 81.88880859 -111.62158203 81.06005859 C-110.74630859 80.32916016 -109.87103516 79.59826172 -108.96923828 78.84521484 C-106.55908203 76.99755859 -106.55908203 76.99755859 -104.26611328 75.93896484 C-103.70279297 75.62830078 -103.13947266 75.31763672 -102.55908203 74.99755859 C-102.37345703 73.45068359 -102.37345703 73.45068359 -102.18408203 71.87255859 C-100.79292566 63.24738912 -93.81687467 58.07356228 -87.22314453 52.91943359 C-80.95452566 48.39720414 -75.28499741 46.96906907 -67.55908203 47.99755859 C-59.44067044 50.09468253 -53.38783066 57.32877877 -47.55908203 62.99755859 C-47.05344727 63.48272949 -46.5478125 63.96790039 -46.02685547 64.46777344 C-30.42954791 79.45352098 -30.42954791 79.45352098 -29.18408203 90.24755859 C-30.31776023 101.58434056 -37.083062 109.81148627 -45.55908203 116.99755859 C-47.88444115 118.40043243 -49.94091178 119.38768305 -52.52392578 120.18896484 C-57.41272287 122.1313468 -60.61036925 126.03797344 -63.80908203 130.06005859 C-64.58767578 131.03072266 -65.36626953 132.00138672 -66.16845703 133.00146484 C-66.95736328 133.99017578 -67.74626953 134.97888672 -68.55908203 135.99755859 C-70.05640938 137.83307539 -71.55636551 139.66645123 -73.05908203 141.49755859 C-75.28906243 144.22137548 -77.5174419 146.9463666 -79.73876953 149.67724609 C-83.31561481 154.06874652 -86.91748316 158.43242809 -90.59960938 162.73583984 C-92.93736406 165.47479605 -95.25011483 168.23432808 -97.55908203 170.99755859 C-98.00461426 171.52607422 -98.45014648 172.05458984 -98.90917969 172.59912109 C-99.34665527 173.12248047 -99.78413086 173.64583984 -100.23486328 174.18505859 C-100.61682861 174.64009766 -100.99879395 175.09513672 -101.39233398 175.56396484 C-111.26870994 188.17195952 -115.85228116 202.21081827 -120.05908203 217.43505859 C-127.67686777 244.94121207 -139.47241839 264.00007314 -159.47973633 284.37817383 C-160.58325005 285.50859851 -161.6795314 286.64612457 -162.76879883 287.7902832 C-164.37096897 289.47164354 -165.99507472 291.12878351 -167.62548828 292.78271484 C-168.10280899 293.2930275 -168.5801297 293.80334015 -169.07191467 294.32911682 C-173.10772487 298.34179398 -176.07411836 298.85376332 -181.55908203 298.99755859 C-184.49301157 297.78571813 -185.98778469 296.7246643 -187.93408203 294.24755859 C-188.92158729 290.69253966 -188.57026576 288.56644235 -187.55908203 284.99755859 C-183.97656581 279.9706651 -179.31465695 275.71658422 -174.90673828 271.42333984 C-174.39927567 270.92826935 -173.89181305 270.43319885 -173.36897278 269.92312622 C-171.26357701 267.87228736 -169.1580596 265.82214707 -167.03198242 263.79272461 C-157.23335108 254.41794879 -149.52109304 244.46437464 -145.05908203 231.43505859 C-144.78265869 230.66331299 -144.50623535 229.89156738 -144.22143555 229.09643555 C-141.65499317 221.72139589 -139.5936217 214.20391886 -137.49658203 206.68505859 C-132.23703645 187.86543457 -125.13411528 173.12460851 -112.19335938 158.34912109 C-108.67469739 154.331569 -105.32431846 150.22308911 -102.05908203 145.99755859 C-97.81027994 140.51151026 -93.37974584 135.21796527 -88.83520508 129.97509766 C-85.93489387 126.62337431 -83.11462038 123.23078189 -80.37158203 119.74755859 C-79.102651 118.16270029 -77.83180596 116.57937262 -76.55908203 114.99755859 C-75.86556641 114.11970703 -75.17205078 113.24185547 -74.45751953 112.33740234 C-69.79806864 106.74770772 -65.91178018 103.92223846 -59.15673828 101.29052734 C-54.90953247 99.1765046 -52.30905612 95.77994617 -49.55908203 91.99755859 C-51.68821163 85.63760159 -56.22544993 81.77905382 -60.87158203 77.12255859 C-61.726875 76.23052734 -62.58216797 75.33849609 -63.46337891 74.41943359 C-64.71151367 73.16259766 -64.71151367 73.16259766 -65.98486328 71.88037109 C-66.7419458 71.11096191 -67.49902832 70.34155273 -68.27905273 69.54882812 C-70.46928659 67.71389858 -70.46928659 67.71389858 -73.22753906 68.1887207 C-77.19519736 69.56514499 -79.87493725 71.78698348 -82.55908203 74.99755859 C-83.62166701 77.3085834 -83.62166701 77.3085834 -84.43408203 79.81005859 C-87.80569369 89.22247446 -96.38124624 94.7943396 -104.04394531 100.69384766 C-108.41647717 104.0630971 -112.63830959 107.56962892 -116.80908203 111.18505859 C-121.43981582 115.19717564 -126.13138735 119.08951751 -130.94970703 122.87646484 C-132.94095412 124.49509833 -134.87292902 126.13817205 -136.79345703 127.83740234 C-155.07185832 143.99280193 -174.07660748 151.62618856 -197.36791992 158.02392578 C-205.90119722 160.3812139 -214.12637662 162.94696536 -222.09423828 166.84912109 C-222.70198593 167.14168793 -223.30973358 167.43425476 -223.93589783 167.73568726 C-235.64758633 173.77880847 -244.65520541 183.8365148 -253.80908203 193.08740234 C-255.15711794 194.44172121 -256.50567869 195.79551786 -257.85473633 197.14881897 C-261.37628318 200.68356549 -264.892185 204.22386774 -268.40643311 207.76586914 C-274.057109 213.4599637 -279.71481413 219.14705553 -285.37561035 224.83108711 C-287.34900071 226.814704 -289.31895101 228.80169063 -291.28857422 230.78904724 C-292.48930705 231.99660337 -293.69014742 233.20405258 -294.89111328 234.41137695 C-295.71235435 235.24272408 -295.71235435 235.24272408 -296.55018616 236.09086609 C-301.32613014 240.88124238 -301.32613014 240.88124238 -305.87158203 241.31005859 C-310.35401185 240.93019166 -311.41793924 240.16796669 -314.55908203 236.99755859 C-316.1755506 234.12979999 -317.33758452 231.13683665 -318.49658203 228.06005859 C-319.00753418 226.73639282 -319.00753418 226.73639282 -319.52880859 225.38598633 C-327.09295625 205.32539885 -333.01851293 183.53022796 -333.55908203 161.99755859 C-333.58486328 161.12679687 -333.61064453 160.25603516 -333.63720703 159.35888672 C-334.02552197 144.59321126 -333.2119397 130.52332548 -330.55908203 115.99755859 C-330.42518066 115.21251953 -330.2912793 114.42748047 -330.15332031 113.61865234 C-324.47648547 80.64484319 -309.66184586 49.82088181 -288.55908203 23.99755859 C-288.10307617 23.43327148 -287.64707031 22.86898437 -287.17724609 22.28759766 C-256.65056731 -15.27886429 -212.21933309 -40.0788572 -164.55908203 -48.00244141 C-163.26099609 -48.22673828 -161.96291016 -48.45103516 -160.62548828 -48.68212891 C-103.14741963 -56.99907442 -43.15616081 -38.64127669 0 0 Z " fill="#FDFEFC" transform="translate(382.55908203125,99.00244140625)"/>
</svg>
